# xmcd
#
# Track frame offsets:
#  150
#  41346
#  62616
#  78714
#  98165
#  119630
#  131704
#  167590
#  177314
#  194084
#  214876
#  245229
#  265579
#  284151
#  298497
#
# Disc length: 4189 seconds
#
# Revision: 0
# Processed by: cddbd v1.5.1PL2 Copyright (c) Steve Scherf et al.
# Submitted via: Collectorz.com_Music_Collector 6.9
#
DISCID=f9105b0f
DTITLE=Steve Earle - Great Amarican Music Hall - Disc 2
DYEAR=1996
DGENRE=
TTITLE0=Track01 - Ellis Unit One
TTITLE1=Track02 - I Ain't Ever Satisfied
TTITLE2=Track03 - Rivers Of Babylon
TTITLE3=Track04 - I'm Nothing Without You
TTITLE4=Track05 - When Will I Be Maried
TTITLE5=Track06 - Ruby Ridge
TTITLE6=Track07 - Land Of The Navajo
TTITLE7=Track08 - Happy Birthday Steve
TTITLE8=Track09 - I'm Looking Through You
TTITLE9=Track10 - White Freightliner Blues
TTITLE10=Track11 - Ben Mcculloch
TTITLE11=Track12 - Copperhead Road
TTITLE12=Track13 - Fearless Heart
TTITLE13=Track14 - Guitar Town
TTITLE14=Track15 - Down The Road
EXTD=
EXTT0=
EXTT1=
EXTT2=
EXTT3=
EXTT4=
EXTT5=
EXTT6=
EXTT7=
EXTT8=
EXTT9=
EXTT10=
EXTT11=
EXTT12=
EXTT13=
EXTT14=
PLAYORDER=
